<svg xmlns="http://www.w3.org/2000/svg" xmlns:xlink="http://www.w3.org/1999/xlink" width="500" zoomAndPan="magnify" viewBox="0 0 375 374.999991" height="500" preserveAspectRatio="xMidYMid meet" version="1.0"><defs><g/><clipPath id="id1"><path d="M 51.546875 170.035156 L 102 170.035156 L 102 205.285156 L 51.546875 205.285156 Z M 51.546875 170.035156 " clip-rule="nonzero"/></clipPath><clipPath id="id2"><path d="M 101 170.035156 L 137 170.035156 L 137 185 L 101 185 Z M 101 170.035156 " clip-rule="nonzero"/></clipPath><clipPath id="id3"><path d="M 101 178 L 143.796875 178 L 143.796875 200 L 101 200 Z M 101 178 " clip-rule="nonzero"/></clipPath><clipPath id="id4"><path d="M 101 194 L 137 194 L 137 205.285156 L 101 205.285156 Z M 101 194 " clip-rule="nonzero"/></clipPath></defs><g clip-path="url(#id1)"><path fill="#28285a" d="M 101.824219 170.089844 L 90.234375 170.089844 C 88.957031 170.089844 87.730469 170.347656 86.558594 170.859375 C 85.386719 171.371094 84.363281 172.097656 83.492188 173.039062 L 75.398438 180.203125 L 64.910156 180.203125 C 64.148438 180.203125 63.394531 180.273438 62.648438 180.40625 C 61.898438 180.542969 61.167969 180.746094 60.457031 181.011719 C 59.742188 181.277344 59.058594 181.609375 58.40625 181.996094 C 57.753906 182.386719 57.136719 182.832031 56.5625 183.332031 C 55.988281 183.835938 55.460938 184.382812 54.984375 184.976562 C 54.507812 185.574219 54.085938 186.207031 53.722656 186.875 C 53.355469 187.546875 53.054688 188.246094 52.8125 188.972656 C 52.574219 189.695312 52.398438 190.4375 52.289062 191.195312 L 51.546875 196.347656 C 51.546875 196.578125 51.59375 196.804688 51.679688 197.015625 C 51.769531 197.230469 51.894531 197.421875 52.058594 197.585938 C 52.222656 197.75 52.410156 197.875 52.621094 197.964844 C 52.835938 198.054688 53.058594 198.097656 53.289062 198.097656 L 60.261719 198.097656 C 60.351562 198.59375 60.484375 199.078125 60.65625 199.554688 C 60.832031 200.027344 61.042969 200.480469 61.296875 200.917969 C 61.550781 201.355469 61.839844 201.765625 62.160156 202.148438 C 62.484375 202.535156 62.839844 202.890625 63.226562 203.214844 C 63.609375 203.539062 64.019531 203.824219 64.457031 204.074219 C 64.890625 204.328125 65.34375 204.539062 65.816406 204.710938 C 66.289062 204.882812 66.769531 205.011719 67.265625 205.101562 C 67.757812 205.1875 68.257812 205.230469 68.757812 205.230469 C 69.261719 205.230469 69.757812 205.1875 70.253906 205.101562 C 70.746094 205.011719 71.230469 204.882812 71.703125 204.710938 C 72.171875 204.539062 72.628906 204.328125 73.0625 204.074219 C 73.496094 203.824219 73.90625 203.539062 74.292969 203.214844 C 74.679688 202.890625 75.03125 202.535156 75.355469 202.148438 C 75.679688 201.765625 75.96875 201.355469 76.222656 200.917969 C 76.472656 200.480469 76.6875 200.027344 76.859375 199.554688 C 77.035156 199.078125 77.164062 198.59375 77.253906 198.097656 L 101.824219 198.097656 Z M 101.824219 170.089844 " fill-opacity="1" fill-rule="nonzero"/></g><g clip-path="url(#id2)"><path fill="#28285a" d="M 101.824219 172.425781 L 112.261719 172.425781 C 113.378906 172.425781 114.449219 172.652344 115.476562 173.101562 C 116.5 173.546875 117.394531 174.183594 118.15625 175.003906 L 123.457031 179.699219 C 124.488281 180.613281 125.648438 181.316406 126.9375 181.800781 C 128.222656 182.289062 129.554688 182.535156 130.933594 182.53125 L 131.773438 182.53125 C 131.863281 182.71875 131.96875 182.890625 132.09375 183.050781 C 132.222656 183.210938 132.363281 183.359375 132.523438 183.484375 C 132.679688 183.613281 132.851562 183.722656 133.035156 183.8125 C 133.21875 183.902344 133.410156 183.972656 133.609375 184.019531 C 133.808594 184.066406 134.007812 184.089844 134.210938 184.089844 C 134.417969 184.089844 134.617188 184.066406 134.816406 184.023438 C 135.015625 183.976562 135.207031 183.910156 135.390625 183.820312 C 135.574219 183.734375 135.746094 183.625 135.90625 183.5 C 136.066406 183.371094 136.210938 183.226562 136.335938 183.066406 C 136.464844 182.90625 136.570312 182.734375 136.660156 182.550781 C 136.75 182.363281 136.816406 182.171875 136.863281 181.972656 C 136.90625 181.773438 136.929688 181.570312 136.929688 181.363281 C 136.929688 181.160156 136.90625 180.957031 136.863281 180.757812 C 136.816406 180.558594 136.75 180.367188 136.660156 180.179688 C 136.570312 179.996094 136.464844 179.824219 136.335938 179.664062 C 136.210938 179.503906 136.066406 179.359375 135.90625 179.230469 C 135.746094 179.105469 135.574219 178.996094 135.390625 178.90625 C 135.207031 178.820312 135.015625 178.753906 134.816406 178.707031 C 134.617188 178.664062 134.417969 178.640625 134.210938 178.640625 C 134.007812 178.640625 133.808594 178.664062 133.609375 178.710938 C 133.410156 178.757812 133.21875 178.824219 133.035156 178.914062 C 132.851562 179.003906 132.679688 179.113281 132.523438 179.242188 C 132.363281 179.371094 132.222656 179.515625 132.09375 179.679688 C 131.96875 179.839844 131.863281 180.011719 131.773438 180.199219 L 130.933594 180.199219 C 129.835938 180.199219 128.777344 180.003906 127.753906 179.613281 C 126.730469 179.226562 125.808594 178.667969 124.988281 177.941406 L 119.808594 173.367188 C 118.828125 172.324219 117.679688 171.519531 116.371094 170.949219 C 115.058594 170.378906 113.691406 170.09375 112.261719 170.089844 L 101.824219 170.089844 Z M 101.824219 172.425781 " fill-opacity="1" fill-rule="nonzero"/></g><g clip-path="url(#id3)"><path fill="#28285a" d="M 140.925781 186.152344 C 140.425781 186.152344 139.960938 186.28125 139.53125 186.542969 C 139.105469 186.800781 138.773438 187.152344 138.539062 187.597656 L 122.292969 187.597656 C 122.015625 187.597656 121.746094 187.542969 121.492188 187.4375 C 121.234375 187.328125 121.007812 187.175781 120.8125 186.980469 C 120.617188 186.78125 120.464844 186.554688 120.359375 186.296875 C 120.25 186.039062 120.199219 185.769531 120.195312 185.488281 C 120.195312 185.042969 120.152344 184.597656 120.066406 184.15625 C 119.976562 183.714844 119.847656 183.289062 119.675781 182.875 C 119.507812 182.460938 119.296875 182.066406 119.046875 181.691406 C 118.800781 181.320312 118.519531 180.972656 118.203125 180.65625 C 117.886719 180.339844 117.542969 180.054688 117.171875 179.804688 C 116.800781 179.554688 116.410156 179.34375 116 179.171875 C 115.585938 179 115.160156 178.871094 114.722656 178.78125 C 114.285156 178.695312 113.84375 178.652344 113.398438 178.652344 L 101.824219 178.652344 L 101.824219 180.984375 L 113.398438 180.984375 C 113.691406 180.984375 113.980469 181.011719 114.269531 181.070312 C 114.558594 181.128906 114.839844 181.214844 115.109375 181.328125 C 115.382812 181.441406 115.640625 181.582031 115.882812 181.746094 C 116.128906 181.910156 116.355469 182.097656 116.5625 182.304688 C 116.769531 182.515625 116.957031 182.742188 117.121094 182.988281 C 117.285156 183.234375 117.421875 183.492188 117.535156 183.765625 C 117.648438 184.039062 117.730469 184.320312 117.789062 184.613281 C 117.847656 184.902344 117.875 185.195312 117.875 185.488281 L 117.875 194.085938 C 117.691406 194.175781 117.519531 194.28125 117.359375 194.410156 C 117.199219 194.535156 117.054688 194.679688 116.925781 194.839844 C 116.800781 195 116.691406 195.171875 116.601562 195.355469 C 116.511719 195.539062 116.445312 195.730469 116.398438 195.933594 C 116.351562 196.132812 116.328125 196.332031 116.328125 196.539062 C 116.328125 196.742188 116.347656 196.945312 116.394531 197.148438 C 116.4375 197.347656 116.503906 197.539062 116.59375 197.722656 C 116.679688 197.910156 116.789062 198.082031 116.914062 198.242188 C 117.042969 198.402344 117.183594 198.546875 117.34375 198.675781 C 117.503906 198.804688 117.675781 198.914062 117.859375 199 C 118.042969 199.089844 118.234375 199.15625 118.433594 199.203125 C 118.632812 199.25 118.832031 199.273438 119.035156 199.273438 C 119.238281 199.273438 119.441406 199.25 119.640625 199.203125 C 119.839844 199.15625 120.03125 199.089844 120.214844 199 C 120.398438 198.914062 120.570312 198.804688 120.726562 198.675781 C 120.886719 198.546875 121.03125 198.402344 121.15625 198.242188 C 121.285156 198.082031 121.390625 197.910156 121.480469 197.722656 C 121.566406 197.539062 121.632812 197.347656 121.679688 197.148438 C 121.722656 196.945312 121.746094 196.742188 121.746094 196.539062 C 121.742188 196.332031 121.71875 196.132812 121.675781 195.933594 C 121.628906 195.730469 121.558594 195.539062 121.472656 195.355469 C 121.382812 195.171875 121.273438 195 121.144531 194.839844 C 121.015625 194.679688 120.875 194.535156 120.714844 194.410156 C 120.554688 194.28125 120.382812 194.175781 120.195312 194.085938 L 120.195312 189.398438 C 120.851562 189.753906 121.550781 189.929688 122.292969 189.925781 L 138.429688 189.925781 C 138.554688 190.230469 138.730469 190.503906 138.957031 190.746094 C 139.183594 190.984375 139.441406 191.179688 139.738281 191.324219 C 140.03125 191.46875 140.34375 191.554688 140.667969 191.585938 C 140.996094 191.621094 141.316406 191.59375 141.636719 191.503906 C 141.953125 191.417969 142.242188 191.28125 142.511719 191.085938 C 142.777344 190.894531 143 190.660156 143.183594 190.386719 C 143.363281 190.109375 143.492188 189.8125 143.566406 189.488281 C 143.640625 189.167969 143.65625 188.84375 143.613281 188.515625 C 143.570312 188.1875 143.46875 187.878906 143.3125 187.589844 C 143.160156 187.296875 142.957031 187.042969 142.710938 186.828125 C 142.464844 186.609375 142.1875 186.441406 141.878906 186.324219 C 141.570312 186.210938 141.253906 186.152344 140.925781 186.152344 Z M 140.925781 186.152344 " fill-opacity="1" fill-rule="nonzero"/></g><path fill="#28285a" d="M 110.398438 191.097656 C 110.722656 191.097656 111.039062 191.042969 111.34375 190.925781 C 111.648438 190.8125 111.921875 190.652344 112.167969 190.4375 C 112.414062 190.222656 112.617188 189.976562 112.773438 189.6875 C 112.929688 189.402344 113.03125 189.097656 113.078125 188.777344 C 113.128906 188.453125 113.117188 188.132812 113.050781 187.8125 C 112.984375 187.492188 112.863281 187.195312 112.691406 186.917969 C 112.519531 186.644531 112.300781 186.40625 112.042969 186.207031 C 111.785156 186.011719 111.503906 185.863281 111.191406 185.769531 C 110.882812 185.671875 110.5625 185.632812 110.238281 185.652344 C 109.917969 185.671875 109.605469 185.75 109.308594 185.882812 C 109.011719 186.011719 108.746094 186.191406 108.515625 186.417969 C 108.28125 186.648438 108.09375 186.910156 107.957031 187.203125 L 101.824219 187.203125 L 101.824219 189.535156 L 107.957031 189.535156 C 108.179688 190.011719 108.511719 190.390625 108.953125 190.671875 C 109.394531 190.957031 109.875 191.097656 110.398438 191.097656 Z M 110.398438 191.097656 " fill-opacity="1" fill-rule="nonzero"/><g clip-path="url(#id4)"><path fill="#28285a" d="M 134.210938 194.210938 C 133.691406 194.210938 133.207031 194.351562 132.765625 194.632812 C 132.324219 194.914062 131.992188 195.289062 131.769531 195.765625 L 129.261719 195.765625 C 128.792969 195.769531 128.335938 195.839844 127.886719 195.980469 C 127.441406 196.125 127.027344 196.328125 126.640625 196.597656 C 126.257812 196.867188 125.921875 197.1875 125.632812 197.558594 C 125.34375 197.929688 125.117188 198.332031 124.953125 198.773438 C 124.726562 199.378906 124.414062 199.9375 124.019531 200.445312 C 123.625 200.953125 123.164062 201.394531 122.636719 201.761719 C 122.109375 202.128906 121.539062 202.410156 120.925781 202.601562 C 120.3125 202.796875 119.683594 202.890625 119.042969 202.894531 C 118.398438 202.894531 117.773438 202.796875 117.160156 202.605469 C 116.546875 202.414062 115.976562 202.132812 115.445312 201.765625 C 114.917969 201.402344 114.457031 200.960938 114.058594 200.453125 C 113.664062 199.945312 113.351562 199.390625 113.125 198.785156 C 112.960938 198.347656 112.734375 197.941406 112.445312 197.574219 C 112.160156 197.203125 111.824219 196.886719 111.441406 196.617188 C 111.058594 196.351562 110.644531 196.148438 110.199219 196.003906 C 109.757812 195.863281 109.300781 195.789062 108.835938 195.785156 L 101.824219 195.765625 L 101.824219 198.101562 L 108.828125 198.121094 C 109.304688 198.121094 109.734375 198.257812 110.125 198.53125 C 110.515625 198.804688 110.792969 199.164062 110.957031 199.613281 C 111.265625 200.4375 111.691406 201.199219 112.234375 201.894531 C 112.777344 202.585938 113.40625 203.1875 114.128906 203.6875 C 114.851562 204.1875 115.632812 204.570312 116.472656 204.832031 C 117.308594 205.09375 118.167969 205.226562 119.046875 205.222656 C 119.921875 205.222656 120.78125 205.089844 121.617188 204.828125 C 122.457031 204.5625 123.234375 204.179688 123.957031 203.675781 C 124.679688 203.175781 125.308594 202.574219 125.851562 201.878906 C 126.390625 201.183594 126.8125 200.421875 127.125 199.59375 C 127.289062 199.148438 127.570312 198.785156 127.960938 198.511719 C 128.351562 198.238281 128.785156 198.097656 129.261719 198.09375 L 131.769531 198.09375 C 131.910156 198.390625 132.09375 198.648438 132.328125 198.875 C 132.5625 199.105469 132.824219 199.28125 133.121094 199.414062 C 133.417969 199.546875 133.730469 199.621094 134.054688 199.640625 C 134.375 199.660156 134.695312 199.621094 135.003906 199.527344 C 135.3125 199.429688 135.597656 199.285156 135.855469 199.085938 C 136.113281 198.886719 136.328125 198.652344 136.5 198.375 C 136.675781 198.097656 136.792969 197.800781 136.859375 197.484375 C 136.929688 197.164062 136.9375 196.84375 136.890625 196.519531 C 136.839844 196.199219 136.738281 195.894531 136.582031 195.609375 C 136.425781 195.324219 136.226562 195.074219 135.980469 194.859375 C 135.734375 194.648438 135.457031 194.484375 135.15625 194.371094 C 134.851562 194.257812 134.535156 194.199219 134.210938 194.199219 Z M 134.210938 194.210938 " fill-opacity="1" fill-rule="nonzero"/></g><g fill="#28285a" fill-opacity="1"><g transform="translate(147.752851, 197.999987)"><g><path d="M 9.78125 0.21875 C 8.25 0.21875 6.863281 -0.0390625 5.625 -0.5625 C 4.394531 -1.09375 3.421875 -1.851562 2.703125 -2.84375 C 1.992188 -3.832031 1.628906 -5 1.609375 -6.34375 L 6.34375 -6.34375 C 6.40625 -5.4375 6.722656 -4.71875 7.296875 -4.1875 C 7.878906 -3.664062 8.675781 -3.40625 9.6875 -3.40625 C 10.71875 -3.40625 11.523438 -3.648438 12.109375 -4.140625 C 12.703125 -4.640625 13 -5.289062 13 -6.09375 C 13 -6.738281 12.796875 -7.269531 12.390625 -7.6875 C 11.992188 -8.113281 11.492188 -8.445312 10.890625 -8.6875 C 10.296875 -8.9375 9.472656 -9.207031 8.421875 -9.5 C 6.992188 -9.914062 5.832031 -10.328125 4.9375 -10.734375 C 4.039062 -11.148438 3.269531 -11.773438 2.625 -12.609375 C 1.988281 -13.441406 1.671875 -14.550781 1.671875 -15.9375 C 1.671875 -17.238281 1.992188 -18.375 2.640625 -19.34375 C 3.296875 -20.3125 4.210938 -21.050781 5.390625 -21.5625 C 6.578125 -22.082031 7.925781 -22.34375 9.4375 -22.34375 C 11.707031 -22.34375 13.550781 -21.789062 14.96875 -20.6875 C 16.394531 -19.582031 17.179688 -18.039062 17.328125 -16.0625 L 12.46875 -16.0625 C 12.425781 -16.820312 12.101562 -17.445312 11.5 -17.9375 C 10.90625 -18.4375 10.113281 -18.6875 9.125 -18.6875 C 8.257812 -18.6875 7.566406 -18.460938 7.046875 -18.015625 C 6.535156 -17.578125 6.28125 -16.9375 6.28125 -16.09375 C 6.28125 -15.507812 6.472656 -15.019531 6.859375 -14.625 C 7.253906 -14.238281 7.738281 -13.921875 8.3125 -13.671875 C 8.894531 -13.429688 9.710938 -13.15625 10.765625 -12.84375 C 12.191406 -12.425781 13.359375 -12.003906 14.265625 -11.578125 C 15.171875 -11.160156 15.945312 -10.53125 16.59375 -9.6875 C 17.25 -8.84375 17.578125 -7.738281 17.578125 -6.375 C 17.578125 -5.195312 17.269531 -4.101562 16.65625 -3.09375 C 16.050781 -2.082031 15.160156 -1.273438 13.984375 -0.671875 C 12.804688 -0.078125 11.40625 0.21875 9.78125 0.21875 Z M 9.78125 0.21875 "/></g></g></g><g fill="#28285a" fill-opacity="1"><g transform="translate(166.971989, 197.999987)"><g><path d="M 26.203125 -22.03125 L 26.203125 0 L 21.78125 0 L 21.78125 -14.328125 L 15.875 0 L 12.53125 0 L 6.59375 -14.328125 L 6.59375 0 L 2.171875 0 L 2.171875 -22.03125 L 7.203125 -22.03125 L 14.203125 -5.65625 L 21.203125 -22.03125 Z M 26.203125 -22.03125 "/></g></g></g><g fill="#28285a" fill-opacity="1"><g transform="translate(195.343092, 197.999987)"><g><path d="M 15.6875 -4.203125 L 6.90625 -4.203125 L 5.453125 0 L 0.828125 0 L 8.75 -22.0625 L 13.890625 -22.0625 L 21.8125 0 L 17.140625 0 Z M 14.484375 -7.734375 L 11.296875 -16.953125 L 8.109375 -7.734375 Z M 14.484375 -7.734375 "/></g></g></g><g fill="#28285a" fill-opacity="1"><g transform="translate(217.938992, 197.999987)"><g><path d="M 13.546875 0 L 8.6875 -8.578125 L 6.59375 -8.578125 L 6.59375 0 L 2.171875 0 L 2.171875 -22.03125 L 10.453125 -22.03125 C 12.148438 -22.03125 13.597656 -21.726562 14.796875 -21.125 C 16.003906 -20.53125 16.90625 -19.722656 17.5 -18.703125 C 18.101562 -17.679688 18.40625 -16.539062 18.40625 -15.28125 C 18.40625 -13.820312 17.984375 -12.507812 17.140625 -11.34375 C 16.296875 -10.175781 15.039062 -9.375 13.375 -8.9375 L 18.65625 0 Z M 6.59375 -11.90625 L 10.296875 -11.90625 C 11.492188 -11.90625 12.382812 -12.191406 12.96875 -12.765625 C 13.5625 -13.347656 13.859375 -14.15625 13.859375 -15.1875 C 13.859375 -16.195312 13.5625 -16.976562 12.96875 -17.53125 C 12.382812 -18.09375 11.492188 -18.375 10.296875 -18.375 L 6.59375 -18.375 Z M 6.59375 -11.90625 "/></g></g></g><g fill="#28285a" fill-opacity="1"><g transform="translate(238.168002, 197.999987)"><g><path d="M 17.171875 -22.03125 L 17.171875 -18.46875 L 11.296875 -18.46875 L 11.296875 0 L 6.875 0 L 6.875 -18.46875 L 1.015625 -18.46875 L 1.015625 -22.03125 Z M 17.171875 -22.03125 "/></g></g></g><g fill="#28285a" fill-opacity="1"><g transform="translate(256.377267, 197.999987)"><g><path d="M 1.109375 -11.046875 C 1.109375 -13.210938 1.597656 -15.148438 2.578125 -16.859375 C 3.554688 -18.578125 4.890625 -19.914062 6.578125 -20.875 C 8.273438 -21.832031 10.175781 -22.3125 12.28125 -22.3125 C 14.738281 -22.3125 16.894531 -21.679688 18.75 -20.421875 C 20.601562 -19.160156 21.894531 -17.414062 22.625 -15.1875 L 17.546875 -15.1875 C 17.046875 -16.238281 16.335938 -17.023438 15.421875 -17.546875 C 14.503906 -18.078125 13.445312 -18.34375 12.25 -18.34375 C 10.96875 -18.34375 9.828125 -18.039062 8.828125 -17.4375 C 7.828125 -16.832031 7.046875 -15.984375 6.484375 -14.890625 C 5.929688 -13.796875 5.65625 -12.515625 5.65625 -11.046875 C 5.65625 -9.597656 5.929688 -8.320312 6.484375 -7.21875 C 7.046875 -6.113281 7.828125 -5.257812 8.828125 -4.65625 C 9.828125 -4.050781 10.96875 -3.75 12.25 -3.75 C 13.445312 -3.75 14.503906 -4.015625 15.421875 -4.546875 C 16.335938 -5.085938 17.046875 -5.882812 17.546875 -6.9375 L 22.625 -6.9375 C 21.894531 -4.6875 20.609375 -2.9375 18.765625 -1.6875 C 16.921875 -0.4375 14.757812 0.1875 12.28125 0.1875 C 10.175781 0.1875 8.273438 -0.289062 6.578125 -1.25 C 4.890625 -2.207031 3.554688 -3.535156 2.578125 -5.234375 C 1.597656 -6.941406 1.109375 -8.878906 1.109375 -11.046875 Z M 1.109375 -11.046875 "/></g></g></g><g fill="#28285a" fill-opacity="1"><g transform="translate(280.614204, 197.999987)"><g><path d="M 15.6875 -4.203125 L 6.90625 -4.203125 L 5.453125 0 L 0.828125 0 L 8.75 -22.0625 L 13.890625 -22.0625 L 21.8125 0 L 17.140625 0 Z M 14.484375 -7.734375 L 11.296875 -16.953125 L 8.109375 -7.734375 Z M 14.484375 -7.734375 "/></g></g></g><g fill="#28285a" fill-opacity="1"><g transform="translate(303.210105, 197.999987)"><g><path d="M 13.546875 0 L 8.6875 -8.578125 L 6.59375 -8.578125 L 6.59375 0 L 2.171875 0 L 2.171875 -22.03125 L 10.453125 -22.03125 C 12.148438 -22.03125 13.597656 -21.726562 14.796875 -21.125 C 16.003906 -20.53125 16.90625 -19.722656 17.5 -18.703125 C 18.101562 -17.679688 18.40625 -16.539062 18.40625 -15.28125 C 18.40625 -13.820312 17.984375 -12.507812 17.140625 -11.34375 C 16.296875 -10.175781 15.039062 -9.375 13.375 -8.9375 L 18.65625 0 Z M 6.59375 -11.90625 L 10.296875 -11.90625 C 11.492188 -11.90625 12.382812 -12.191406 12.96875 -12.765625 C 13.5625 -13.347656 13.859375 -14.15625 13.859375 -15.1875 C 13.859375 -16.195312 13.5625 -16.976562 12.96875 -17.53125 C 12.382812 -18.09375 11.492188 -18.375 10.296875 -18.375 L 6.59375 -18.375 Z M 6.59375 -11.90625 "/></g></g></g></svg>